#define bullet_width 10
#define bullet_height 10
static unsigned char bullet_bits[] = {
   0x33, 0x00, 0x66, 0x00, 0xcc, 0x00, 0x99, 0x01, 0x33, 0x03, 0x33, 0x03,
   0x99, 0x01, 0xcc, 0x00, 0x66, 0x00, 0x33, 0x00 };
