#define close_hover_width 10
#define close_hover_height 10
static unsigned char close_hover_bits[] = {
   0x99, 0x03, 0xcc, 0x03, 0xe6, 0x03, 0xf3, 0x03, 0xf9, 0x01, 0xfc, 0x00,
   0x7e, 0x02, 0x3f, 0x03, 0x9f, 0x01, 0xcf, 0x00 };
