#define max_toggled_hover_width 10
#define max_toggled_hover_height 10
static unsigned char max_toggled_hover_bits[] = {
   0x00, 0x00, 0xfe, 0x03, 0x02, 0x00, 0xfa, 0x03, 0xfa, 0x03, 0xfa, 0x03,
   0x3a, 0x00, 0xba, 0x03, 0xba, 0x00, 0xba, 0x02 };
