#define close_width 10
#define close_height 10
static unsigned char close_bits[] = {
   0x66, 0x02, 0x33, 0x03, 0x99, 0x01, 0xcc, 0x00, 0x66, 0x02, 0x33, 0x03,
   0x99, 0x01, 0xcc, 0x00, 0x66, 0x02, 0x33, 0x03 };
