#define max_toggled_width 10
#define max_toggled_height 10
static unsigned char max_toggled_bits[] = {
   0xff, 0x03, 0x01, 0x00, 0xfd, 0x03, 0x05, 0x00, 0x05, 0x00, 0x05, 0x00,
   0xc5, 0x03, 0x45, 0x00, 0x45, 0x03, 0x45, 0x01 };
